<mxfile host="app.diagrams.net" agent="Mozilla/5.0 (Windows NT 10.0; Win64; x64) AppleWebKit/537.36 (KHTML, like Gecko) Chrome/131.0.0.0 Safari/537.36" version="24.8.6">
  <diagram name="Page-1" id="-qjZHfZMnCRvgiAYc-aO">
    <mxGraphModel dx="1985" dy="1050" grid="1" gridSize="10" guides="1" tooltips="1" connect="1" arrows="1" fold="1" page="1" pageScale="1" pageWidth="1169" pageHeight="827" math="0" shadow="0">
      <root>
        <mxCell id="0" />
        <mxCell id="1" parent="0" />
        <mxCell id="gRiZysT--JvQKF4aJ3n7-1" value="Arduino Mega" style="rounded=0;whiteSpace=wrap;html=1;" parent="1" vertex="1">
          <mxGeometry x="40" y="40" width="320" height="120" as="geometry" />
        </mxCell>
        <mxCell id="gRiZysT--JvQKF4aJ3n7-2" value="5V" style="text;html=1;align=center;verticalAlign=middle;whiteSpace=wrap;rounded=0;" parent="1" vertex="1">
          <mxGeometry x="30" y="130" width="60" height="30" as="geometry" />
        </mxCell>
        <mxCell id="gRiZysT--JvQKF4aJ3n7-3" value="3.3V" style="text;html=1;align=center;verticalAlign=middle;whiteSpace=wrap;rounded=0;" parent="1" vertex="1">
          <mxGeometry x="70" y="130" width="60" height="30" as="geometry" />
        </mxCell>
        <mxCell id="gRiZysT--JvQKF4aJ3n7-4" value="Gnd" style="text;html=1;align=center;verticalAlign=middle;whiteSpace=wrap;rounded=0;" parent="1" vertex="1">
          <mxGeometry x="110" y="130" width="60" height="30" as="geometry" />
        </mxCell>
        <mxCell id="gRiZysT--JvQKF4aJ3n7-5" value="SDA" style="text;html=1;align=center;verticalAlign=middle;whiteSpace=wrap;rounded=0;" parent="1" vertex="1">
          <mxGeometry x="150" y="130" width="60" height="30" as="geometry" />
        </mxCell>
        <mxCell id="gRiZysT--JvQKF4aJ3n7-6" value="SCL" style="text;html=1;align=center;verticalAlign=middle;whiteSpace=wrap;rounded=0;" parent="1" vertex="1">
          <mxGeometry x="190" y="130" width="60" height="30" as="geometry" />
        </mxCell>
        <mxCell id="gRiZysT--JvQKF4aJ3n7-7" value="MOSI" style="text;html=1;align=center;verticalAlign=middle;whiteSpace=wrap;rounded=0;" parent="1" vertex="1">
          <mxGeometry x="230" y="130" width="60" height="30" as="geometry" />
        </mxCell>
        <mxCell id="gRiZysT--JvQKF4aJ3n7-8" value="MISO" style="text;html=1;align=center;verticalAlign=middle;whiteSpace=wrap;rounded=0;" parent="1" vertex="1">
          <mxGeometry x="270" y="130" width="60" height="30" as="geometry" />
        </mxCell>
        <mxCell id="gRiZysT--JvQKF4aJ3n7-9" value="CLK" style="text;html=1;align=center;verticalAlign=middle;whiteSpace=wrap;rounded=0;" parent="1" vertex="1">
          <mxGeometry x="310" y="130" width="60" height="30" as="geometry" />
        </mxCell>
        <mxCell id="gRiZysT--JvQKF4aJ3n7-10" value="D53" style="text;html=1;align=center;verticalAlign=middle;whiteSpace=wrap;rounded=0;" parent="1" vertex="1">
          <mxGeometry x="320" y="40" width="60" height="30" as="geometry" />
        </mxCell>
        <mxCell id="gRiZysT--JvQKF4aJ3n7-11" value="A0" style="text;html=1;align=center;verticalAlign=middle;whiteSpace=wrap;rounded=0;" parent="1" vertex="1">
          <mxGeometry x="320" y="60" width="60" height="30" as="geometry" />
        </mxCell>
        <mxCell id="gRiZysT--JvQKF4aJ3n7-12" value="SPS30 (PM Sensor)" style="rounded=0;whiteSpace=wrap;html=1;" parent="1" vertex="1">
          <mxGeometry x="920" y="40" width="200" height="80" as="geometry" />
        </mxCell>
        <mxCell id="gRiZysT--JvQKF4aJ3n7-13" value="LCD1" style="rounded=0;whiteSpace=wrap;html=1;" parent="1" vertex="1">
          <mxGeometry x="640" y="40" width="160" height="80" as="geometry" />
        </mxCell>
        <mxCell id="gRiZysT--JvQKF4aJ3n7-14" value="LCD2" style="rounded=0;whiteSpace=wrap;html=1;" parent="1" vertex="1">
          <mxGeometry x="640" y="200" width="160" height="80" as="geometry" />
        </mxCell>
        <mxCell id="gRiZysT--JvQKF4aJ3n7-15" value="SCD41 (CO2 Sensor)" style="rounded=0;whiteSpace=wrap;html=1;" parent="1" vertex="1">
          <mxGeometry x="920" y="520" width="160" height="80" as="geometry" />
        </mxCell>
        <mxCell id="gRiZysT--JvQKF4aJ3n7-16" value="RTC" style="rounded=0;whiteSpace=wrap;html=1;" parent="1" vertex="1">
          <mxGeometry x="640" y="520" width="160" height="80" as="geometry" />
        </mxCell>
        <mxCell id="gRiZysT--JvQKF4aJ3n7-17" value="DAC" style="rounded=0;whiteSpace=wrap;html=1;" parent="1" vertex="1">
          <mxGeometry x="920" y="200" width="200" height="80" as="geometry" />
        </mxCell>
        <mxCell id="gRiZysT--JvQKF4aJ3n7-18" value="PID VOC sensor" style="rounded=0;whiteSpace=wrap;html=1;" parent="1" vertex="1">
          <mxGeometry x="920" y="360" width="120" height="80" as="geometry" />
        </mxCell>
        <mxCell id="gRiZysT--JvQKF4aJ3n7-19" value="Gravity CO sensor" style="rounded=0;whiteSpace=wrap;html=1;" parent="1" vertex="1">
          <mxGeometry x="920" y="680" width="160" height="80" as="geometry" />
        </mxCell>
        <mxCell id="gRiZysT--JvQKF4aJ3n7-20" value="Gravity H2S sensor" style="rounded=0;whiteSpace=wrap;html=1;" parent="1" vertex="1">
          <mxGeometry x="640" y="680" width="160" height="80" as="geometry" />
        </mxCell>
        <mxCell id="gRiZysT--JvQKF4aJ3n7-21" value="Micro SD Card reader" style="rounded=0;whiteSpace=wrap;html=1;" parent="1" vertex="1">
          <mxGeometry x="640" y="360" width="240" height="80" as="geometry" />
        </mxCell>
        <mxCell id="gRiZysT--JvQKF4aJ3n7-22" value="5V" style="text;html=1;align=center;verticalAlign=middle;whiteSpace=wrap;rounded=0;" parent="1" vertex="1">
          <mxGeometry x="630" y="100" width="60" height="30" as="geometry" />
        </mxCell>
        <mxCell id="gRiZysT--JvQKF4aJ3n7-23" value="Gnd" style="text;html=1;align=center;verticalAlign=middle;whiteSpace=wrap;rounded=0;" parent="1" vertex="1">
          <mxGeometry x="670" y="100" width="60" height="30" as="geometry" />
        </mxCell>
        <mxCell id="gRiZysT--JvQKF4aJ3n7-24" value="SDA" style="text;html=1;align=center;verticalAlign=middle;whiteSpace=wrap;rounded=0;" parent="1" vertex="1">
          <mxGeometry x="710" y="100" width="60" height="30" as="geometry" />
        </mxCell>
        <mxCell id="gRiZysT--JvQKF4aJ3n7-25" value="SCL" style="text;html=1;align=center;verticalAlign=middle;whiteSpace=wrap;rounded=0;" parent="1" vertex="1">
          <mxGeometry x="750" y="100" width="60" height="30" as="geometry" />
        </mxCell>
        <mxCell id="gRiZysT--JvQKF4aJ3n7-26" value="5V" style="text;html=1;align=center;verticalAlign=middle;whiteSpace=wrap;rounded=0;" parent="1" vertex="1">
          <mxGeometry x="630" y="260" width="60" height="30" as="geometry" />
        </mxCell>
        <mxCell id="gRiZysT--JvQKF4aJ3n7-27" value="Gnd" style="text;html=1;align=center;verticalAlign=middle;whiteSpace=wrap;rounded=0;" parent="1" vertex="1">
          <mxGeometry x="670" y="260" width="60" height="30" as="geometry" />
        </mxCell>
        <mxCell id="gRiZysT--JvQKF4aJ3n7-28" value="SDA" style="text;html=1;align=center;verticalAlign=middle;whiteSpace=wrap;rounded=0;" parent="1" vertex="1">
          <mxGeometry x="710" y="260" width="60" height="30" as="geometry" />
        </mxCell>
        <mxCell id="gRiZysT--JvQKF4aJ3n7-29" value="SCL" style="text;html=1;align=center;verticalAlign=middle;whiteSpace=wrap;rounded=0;" parent="1" vertex="1">
          <mxGeometry x="750" y="260" width="60" height="30" as="geometry" />
        </mxCell>
        <mxCell id="gRiZysT--JvQKF4aJ3n7-30" value="5V" style="text;html=1;align=center;verticalAlign=middle;whiteSpace=wrap;rounded=0;" parent="1" vertex="1">
          <mxGeometry x="630" y="420" width="60" height="30" as="geometry" />
        </mxCell>
        <mxCell id="gRiZysT--JvQKF4aJ3n7-31" value="Gnd" style="text;html=1;align=center;verticalAlign=middle;whiteSpace=wrap;rounded=0;" parent="1" vertex="1">
          <mxGeometry x="670" y="420" width="60" height="30" as="geometry" />
        </mxCell>
        <mxCell id="gRiZysT--JvQKF4aJ3n7-34" value="5V" style="text;html=1;align=center;verticalAlign=middle;whiteSpace=wrap;rounded=0;" parent="1" vertex="1">
          <mxGeometry x="630" y="580" width="60" height="30" as="geometry" />
        </mxCell>
        <mxCell id="gRiZysT--JvQKF4aJ3n7-35" value="Gnd" style="text;html=1;align=center;verticalAlign=middle;whiteSpace=wrap;rounded=0;" parent="1" vertex="1">
          <mxGeometry x="670" y="580" width="60" height="30" as="geometry" />
        </mxCell>
        <mxCell id="gRiZysT--JvQKF4aJ3n7-36" value="SDA" style="text;html=1;align=center;verticalAlign=middle;whiteSpace=wrap;rounded=0;" parent="1" vertex="1">
          <mxGeometry x="710" y="580" width="60" height="30" as="geometry" />
        </mxCell>
        <mxCell id="gRiZysT--JvQKF4aJ3n7-37" value="SCL" style="text;html=1;align=center;verticalAlign=middle;whiteSpace=wrap;rounded=0;" parent="1" vertex="1">
          <mxGeometry x="750" y="580" width="60" height="30" as="geometry" />
        </mxCell>
        <mxCell id="gRiZysT--JvQKF4aJ3n7-38" value="5V" style="text;html=1;align=center;verticalAlign=middle;whiteSpace=wrap;rounded=0;" parent="1" vertex="1">
          <mxGeometry x="630" y="740" width="60" height="30" as="geometry" />
        </mxCell>
        <mxCell id="gRiZysT--JvQKF4aJ3n7-39" value="Gnd" style="text;html=1;align=center;verticalAlign=middle;whiteSpace=wrap;rounded=0;" parent="1" vertex="1">
          <mxGeometry x="670" y="740" width="60" height="30" as="geometry" />
        </mxCell>
        <mxCell id="gRiZysT--JvQKF4aJ3n7-40" value="MISO" style="text;html=1;align=center;verticalAlign=middle;whiteSpace=wrap;rounded=0;" parent="1" vertex="1">
          <mxGeometry x="710" y="420" width="60" height="30" as="geometry" />
        </mxCell>
        <mxCell id="gRiZysT--JvQKF4aJ3n7-41" value="MOSI" style="text;html=1;align=center;verticalAlign=middle;whiteSpace=wrap;rounded=0;" parent="1" vertex="1">
          <mxGeometry x="750" y="420" width="60" height="30" as="geometry" />
        </mxCell>
        <mxCell id="gRiZysT--JvQKF4aJ3n7-42" value="5V" style="text;html=1;align=center;verticalAlign=middle;whiteSpace=wrap;rounded=0;" parent="1" vertex="1">
          <mxGeometry x="910" y="740" width="60" height="30" as="geometry" />
        </mxCell>
        <mxCell id="gRiZysT--JvQKF4aJ3n7-43" value="Gnd" style="text;html=1;align=center;verticalAlign=middle;whiteSpace=wrap;rounded=0;" parent="1" vertex="1">
          <mxGeometry x="950" y="740" width="60" height="30" as="geometry" />
        </mxCell>
        <mxCell id="gRiZysT--JvQKF4aJ3n7-44" value="SDA" style="text;html=1;align=center;verticalAlign=middle;whiteSpace=wrap;rounded=0;" parent="1" vertex="1">
          <mxGeometry x="990" y="740" width="60" height="30" as="geometry" />
        </mxCell>
        <mxCell id="gRiZysT--JvQKF4aJ3n7-45" value="SCL" style="text;html=1;align=center;verticalAlign=middle;whiteSpace=wrap;rounded=0;" parent="1" vertex="1">
          <mxGeometry x="1030" y="740" width="60" height="30" as="geometry" />
        </mxCell>
        <mxCell id="gRiZysT--JvQKF4aJ3n7-46" value="3.3V" style="text;html=1;align=center;verticalAlign=middle;whiteSpace=wrap;rounded=0;" parent="1" vertex="1">
          <mxGeometry x="910" y="580" width="60" height="30" as="geometry" />
        </mxCell>
        <mxCell id="gRiZysT--JvQKF4aJ3n7-47" value="Gnd" style="text;html=1;align=center;verticalAlign=middle;whiteSpace=wrap;rounded=0;" parent="1" vertex="1">
          <mxGeometry x="950" y="580" width="60" height="30" as="geometry" />
        </mxCell>
        <mxCell id="gRiZysT--JvQKF4aJ3n7-48" value="SDA" style="text;html=1;align=center;verticalAlign=middle;whiteSpace=wrap;rounded=0;" parent="1" vertex="1">
          <mxGeometry x="990" y="580" width="60" height="30" as="geometry" />
        </mxCell>
        <mxCell id="gRiZysT--JvQKF4aJ3n7-49" value="SCL" style="text;html=1;align=center;verticalAlign=middle;whiteSpace=wrap;rounded=0;" parent="1" vertex="1">
          <mxGeometry x="1030" y="580" width="60" height="30" as="geometry" />
        </mxCell>
        <mxCell id="gRiZysT--JvQKF4aJ3n7-50" value="3.3V" style="text;html=1;align=center;verticalAlign=middle;whiteSpace=wrap;rounded=0;" parent="1" vertex="1">
          <mxGeometry x="910" y="260" width="60" height="30" as="geometry" />
        </mxCell>
        <mxCell id="gRiZysT--JvQKF4aJ3n7-51" value="Gnd" style="text;html=1;align=center;verticalAlign=middle;whiteSpace=wrap;rounded=0;" parent="1" vertex="1">
          <mxGeometry x="950" y="260" width="60" height="30" as="geometry" />
        </mxCell>
        <mxCell id="gRiZysT--JvQKF4aJ3n7-52" value="SDA" style="text;html=1;align=center;verticalAlign=middle;whiteSpace=wrap;rounded=0;" parent="1" vertex="1">
          <mxGeometry x="990" y="260" width="60" height="30" as="geometry" />
        </mxCell>
        <mxCell id="gRiZysT--JvQKF4aJ3n7-53" value="SCL" style="text;html=1;align=center;verticalAlign=middle;whiteSpace=wrap;rounded=0;" parent="1" vertex="1">
          <mxGeometry x="1030" y="260" width="60" height="30" as="geometry" />
        </mxCell>
        <mxCell id="gRiZysT--JvQKF4aJ3n7-54" value="5V" style="text;html=1;align=center;verticalAlign=middle;whiteSpace=wrap;rounded=0;" parent="1" vertex="1">
          <mxGeometry x="910" y="100" width="60" height="30" as="geometry" />
        </mxCell>
        <mxCell id="gRiZysT--JvQKF4aJ3n7-55" value="Gnd" style="text;html=1;align=center;verticalAlign=middle;whiteSpace=wrap;rounded=0;" parent="1" vertex="1">
          <mxGeometry x="950" y="100" width="60" height="30" as="geometry" />
        </mxCell>
        <mxCell id="gRiZysT--JvQKF4aJ3n7-56" value="SDA" style="text;html=1;align=center;verticalAlign=middle;whiteSpace=wrap;rounded=0;" parent="1" vertex="1">
          <mxGeometry x="990" y="100" width="60" height="30" as="geometry" />
        </mxCell>
        <mxCell id="gRiZysT--JvQKF4aJ3n7-57" value="SCL" style="text;html=1;align=center;verticalAlign=middle;whiteSpace=wrap;rounded=0;" parent="1" vertex="1">
          <mxGeometry x="1030" y="100" width="60" height="30" as="geometry" />
        </mxCell>
        <mxCell id="gRiZysT--JvQKF4aJ3n7-58" value="A0" style="text;html=1;align=center;verticalAlign=middle;whiteSpace=wrap;rounded=0;" parent="1" vertex="1">
          <mxGeometry x="1070" y="260" width="60" height="30" as="geometry" />
        </mxCell>
        <mxCell id="gRiZysT--JvQKF4aJ3n7-59" value="3.3V&lt;span style=&quot;color: rgba(0, 0, 0, 0); font-family: monospace; font-size: 0px; text-align: start; text-wrap-mode: nowrap;&quot;&gt;%3CmxGraphModel%3E%3Croot%3E%3CmxCell%20id%3D%220%22%2F%3E%3CmxCell%20id%3D%221%22%20parent%3D%220%22%2F%3E%3CmxCell%20id%3D%222%22%20value%3D%22A0%22%20style%3D%22text%3Bhtml%3D1%3Balign%3Dcenter%3BverticalAlign%3Dmiddle%3BwhiteSpace%3Dwrap%3Brounded%3D0%3B%22%20vertex%3D%221%22%20parent%3D%221%22%3E%3CmxGeometry%20x%3D%22320%22%20y%3D%2280%22%20width%3D%2260%22%20height%3D%2230%22%20as%3D%22geometry%22%2F%3E%3C%2FmxCell%3E%3C%2Froot%3E%3C%2FmxGraphModel%3E&lt;/span&gt;" style="text;html=1;align=center;verticalAlign=middle;whiteSpace=wrap;rounded=0;" parent="1" vertex="1">
          <mxGeometry x="910" y="420" width="60" height="30" as="geometry" />
        </mxCell>
        <mxCell id="gRiZysT--JvQKF4aJ3n7-60" value="Gnd" style="text;html=1;align=center;verticalAlign=middle;whiteSpace=wrap;rounded=0;" parent="1" vertex="1">
          <mxGeometry x="950" y="420" width="60" height="30" as="geometry" />
        </mxCell>
        <mxCell id="gRiZysT--JvQKF4aJ3n7-61" value="A0" style="text;html=1;align=center;verticalAlign=middle;whiteSpace=wrap;rounded=0;" parent="1" vertex="1">
          <mxGeometry x="990" y="420" width="60" height="30" as="geometry" />
        </mxCell>
        <mxCell id="gRiZysT--JvQKF4aJ3n7-63" value="" style="endArrow=none;html=1;rounded=0;entryX=0.5;entryY=1;entryDx=0;entryDy=0;fillColor=#f8cecc;strokeColor=#b85450;" parent="1" target="gRiZysT--JvQKF4aJ3n7-2" edge="1">
          <mxGeometry width="50" height="50" relative="1" as="geometry">
            <mxPoint x="60" y="700" as="sourcePoint" />
            <mxPoint x="370" y="160" as="targetPoint" />
          </mxGeometry>
        </mxCell>
        <mxCell id="gRiZysT--JvQKF4aJ3n7-64" value="" style="endArrow=none;html=1;rounded=0;fillColor=#f8cecc;strokeColor=#b85450;" parent="1" edge="1">
          <mxGeometry width="50" height="50" relative="1" as="geometry">
            <mxPoint x="60" y="200" as="sourcePoint" />
            <mxPoint x="560" y="200" as="targetPoint" />
          </mxGeometry>
        </mxCell>
        <mxCell id="gRiZysT--JvQKF4aJ3n7-67" value="" style="endArrow=none;html=1;rounded=0;fillColor=#f8cecc;strokeColor=#b85450;" parent="1" edge="1">
          <mxGeometry width="50" height="50" relative="1" as="geometry">
            <mxPoint x="560" y="771.3333129882812" as="sourcePoint" />
            <mxPoint x="560" y="130" as="targetPoint" />
          </mxGeometry>
        </mxCell>
        <mxCell id="gRiZysT--JvQKF4aJ3n7-68" value="" style="endArrow=none;html=1;rounded=0;entryX=0.5;entryY=1;entryDx=0;entryDy=0;fillColor=#f8cecc;strokeColor=#b85450;" parent="1" target="gRiZysT--JvQKF4aJ3n7-54" edge="1">
          <mxGeometry width="50" height="50" relative="1" as="geometry">
            <mxPoint x="560" y="130" as="sourcePoint" />
            <mxPoint x="820" y="50" as="targetPoint" />
          </mxGeometry>
        </mxCell>
        <mxCell id="gRiZysT--JvQKF4aJ3n7-69" value="" style="endArrow=classic;html=1;rounded=0;fillColor=#f8cecc;strokeColor=#b85450;" parent="1" edge="1">
          <mxGeometry width="50" height="50" relative="1" as="geometry">
            <mxPoint x="659.86" y="130" as="sourcePoint" />
            <mxPoint x="659.86" y="120" as="targetPoint" />
          </mxGeometry>
        </mxCell>
        <mxCell id="gRiZysT--JvQKF4aJ3n7-70" value="" style="endArrow=classic;html=1;rounded=0;fillColor=#f8cecc;strokeColor=#b85450;" parent="1" edge="1">
          <mxGeometry width="50" height="50" relative="1" as="geometry">
            <mxPoint x="939.86" y="130" as="sourcePoint" />
            <mxPoint x="939.86" y="120" as="targetPoint" />
          </mxGeometry>
        </mxCell>
        <mxCell id="gRiZysT--JvQKF4aJ3n7-71" value="" style="endArrow=none;html=1;rounded=0;entryX=0.5;entryY=1;entryDx=0;entryDy=0;fillColor=#f8cecc;strokeColor=#b85450;" parent="1" target="gRiZysT--JvQKF4aJ3n7-26" edge="1">
          <mxGeometry width="50" height="50" relative="1" as="geometry">
            <mxPoint x="560" y="289" as="sourcePoint" />
            <mxPoint x="940" y="289" as="targetPoint" />
          </mxGeometry>
        </mxCell>
        <mxCell id="gRiZysT--JvQKF4aJ3n7-73" value="" style="endArrow=none;html=1;rounded=0;fillColor=#f8cecc;strokeColor=#b85450;" parent="1" edge="1">
          <mxGeometry width="50" height="50" relative="1" as="geometry">
            <mxPoint x="560" y="610" as="sourcePoint" />
            <mxPoint x="660" y="610" as="targetPoint" />
          </mxGeometry>
        </mxCell>
        <mxCell id="gRiZysT--JvQKF4aJ3n7-74" value="" style="endArrow=none;html=1;rounded=0;entryX=0.5;entryY=1;entryDx=0;entryDy=0;fillColor=#f8cecc;strokeColor=#b85450;" parent="1" edge="1">
          <mxGeometry width="50" height="50" relative="1" as="geometry">
            <mxPoint x="560" y="770" as="sourcePoint" />
            <mxPoint x="940" y="770" as="targetPoint" />
          </mxGeometry>
        </mxCell>
        <mxCell id="gRiZysT--JvQKF4aJ3n7-75" value="" style="endArrow=classic;html=1;rounded=0;fillColor=#f8cecc;strokeColor=#b85450;" parent="1" edge="1">
          <mxGeometry width="50" height="50" relative="1" as="geometry">
            <mxPoint x="659.8000000000001" y="290" as="sourcePoint" />
            <mxPoint x="659.8000000000001" y="280" as="targetPoint" />
          </mxGeometry>
        </mxCell>
        <mxCell id="gRiZysT--JvQKF4aJ3n7-78" value="" style="endArrow=classic;html=1;rounded=0;fillColor=#f8cecc;strokeColor=#b85450;" parent="1" edge="1">
          <mxGeometry width="50" height="50" relative="1" as="geometry">
            <mxPoint x="659.8000000000001" y="610" as="sourcePoint" />
            <mxPoint x="659.8000000000001" y="600" as="targetPoint" />
          </mxGeometry>
        </mxCell>
        <mxCell id="gRiZysT--JvQKF4aJ3n7-79" value="" style="endArrow=classic;html=1;rounded=0;fillColor=#f8cecc;strokeColor=#b85450;" parent="1" edge="1">
          <mxGeometry width="50" height="50" relative="1" as="geometry">
            <mxPoint x="659.83" y="770" as="sourcePoint" />
            <mxPoint x="659.83" y="760" as="targetPoint" />
          </mxGeometry>
        </mxCell>
        <mxCell id="gRiZysT--JvQKF4aJ3n7-80" value="" style="endArrow=classic;html=1;rounded=0;fillColor=#f8cecc;strokeColor=#b85450;" parent="1" edge="1">
          <mxGeometry width="50" height="50" relative="1" as="geometry">
            <mxPoint x="939.83" y="770" as="sourcePoint" />
            <mxPoint x="939.83" y="760" as="targetPoint" />
          </mxGeometry>
        </mxCell>
        <mxCell id="gRiZysT--JvQKF4aJ3n7-81" value="" style="endArrow=none;html=1;rounded=0;entryX=0.5;entryY=1;entryDx=0;entryDy=0;fillColor=#e1d5e7;strokeColor=#9673a6;" parent="1" target="gRiZysT--JvQKF4aJ3n7-3" edge="1">
          <mxGeometry width="50" height="50" relative="1" as="geometry">
            <mxPoint x="100" y="220" as="sourcePoint" />
            <mxPoint x="260" y="130" as="targetPoint" />
          </mxGeometry>
        </mxCell>
        <mxCell id="gRiZysT--JvQKF4aJ3n7-82" value="" style="endArrow=none;html=1;rounded=0;fillColor=#e1d5e7;strokeColor=#9673a6;" parent="1" edge="1">
          <mxGeometry width="50" height="50" relative="1" as="geometry">
            <mxPoint x="100" y="220" as="sourcePoint" />
            <mxPoint x="600" y="220" as="targetPoint" />
          </mxGeometry>
        </mxCell>
        <mxCell id="gRiZysT--JvQKF4aJ3n7-83" value="" style="endArrow=none;html=1;rounded=0;fillColor=#e1d5e7;strokeColor=#9673a6;" parent="1" edge="1">
          <mxGeometry width="50" height="50" relative="1" as="geometry">
            <mxPoint x="600" y="300" as="sourcePoint" />
            <mxPoint x="600" y="220" as="targetPoint" />
          </mxGeometry>
        </mxCell>
        <mxCell id="gRiZysT--JvQKF4aJ3n7-84" value="" style="endArrow=none;html=1;rounded=0;entryX=0.5;entryY=1;entryDx=0;entryDy=0;fillColor=#e1d5e7;strokeColor=#9673a6;" parent="1" edge="1">
          <mxGeometry width="50" height="50" relative="1" as="geometry">
            <mxPoint x="600" y="300" as="sourcePoint" />
            <mxPoint x="940" y="300" as="targetPoint" />
          </mxGeometry>
        </mxCell>
        <mxCell id="gRiZysT--JvQKF4aJ3n7-85" value="" style="endArrow=none;html=1;rounded=0;entryX=0.5;entryY=1;entryDx=0;entryDy=0;fillColor=#e1d5e7;strokeColor=#9673a6;" parent="1" edge="1">
          <mxGeometry width="50" height="50" relative="1" as="geometry">
            <mxPoint x="900" y="450" as="sourcePoint" />
            <mxPoint x="940" y="450" as="targetPoint" />
          </mxGeometry>
        </mxCell>
        <mxCell id="gRiZysT--JvQKF4aJ3n7-86" value="" style="endArrow=classic;html=1;rounded=0;fillColor=#e1d5e7;strokeColor=#9673a6;" parent="1" edge="1">
          <mxGeometry width="50" height="50" relative="1" as="geometry">
            <mxPoint x="940" y="300" as="sourcePoint" />
            <mxPoint x="939.8000000000001" y="280" as="targetPoint" />
          </mxGeometry>
        </mxCell>
        <mxCell id="gRiZysT--JvQKF4aJ3n7-87" value="" style="endArrow=classic;html=1;rounded=0;fillColor=#e1d5e7;strokeColor=#9673a6;" parent="1" edge="1">
          <mxGeometry width="50" height="50" relative="1" as="geometry">
            <mxPoint x="939.7900000000001" y="450" as="sourcePoint" />
            <mxPoint x="939.7900000000001" y="440" as="targetPoint" />
          </mxGeometry>
        </mxCell>
        <mxCell id="gRiZysT--JvQKF4aJ3n7-89" value="" style="endArrow=none;html=1;rounded=0;entryX=0.5;entryY=1;entryDx=0;entryDy=0;" parent="1" target="gRiZysT--JvQKF4aJ3n7-4" edge="1">
          <mxGeometry width="50" height="50" relative="1" as="geometry">
            <mxPoint x="140" y="240" as="sourcePoint" />
            <mxPoint x="210" y="150" as="targetPoint" />
          </mxGeometry>
        </mxCell>
        <mxCell id="gRiZysT--JvQKF4aJ3n7-90" value="" style="endArrow=none;html=1;rounded=0;" parent="1" edge="1">
          <mxGeometry width="50" height="50" relative="1" as="geometry">
            <mxPoint x="140" y="240" as="sourcePoint" />
            <mxPoint x="520" y="240" as="targetPoint" />
          </mxGeometry>
        </mxCell>
        <mxCell id="gRiZysT--JvQKF4aJ3n7-91" value="" style="endArrow=none;html=1;rounded=0;" parent="1" edge="1">
          <mxGeometry width="50" height="50" relative="1" as="geometry">
            <mxPoint x="520" y="790.5128831129807" as="sourcePoint" />
            <mxPoint x="520" y="150" as="targetPoint" />
          </mxGeometry>
        </mxCell>
        <mxCell id="gRiZysT--JvQKF4aJ3n7-92" value="" style="endArrow=none;html=1;rounded=0;" parent="1" edge="1">
          <mxGeometry width="50" height="50" relative="1" as="geometry">
            <mxPoint x="520" y="150" as="sourcePoint" />
            <mxPoint x="1100" y="150" as="targetPoint" />
          </mxGeometry>
        </mxCell>
        <mxCell id="gRiZysT--JvQKF4aJ3n7-93" value="" style="endArrow=none;html=1;rounded=0;" parent="1" edge="1">
          <mxGeometry width="50" height="50" relative="1" as="geometry">
            <mxPoint x="520" y="310" as="sourcePoint" />
            <mxPoint x="980" y="310" as="targetPoint" />
          </mxGeometry>
        </mxCell>
        <mxCell id="gRiZysT--JvQKF4aJ3n7-94" value="" style="endArrow=none;html=1;rounded=0;" parent="1" edge="1">
          <mxGeometry width="50" height="50" relative="1" as="geometry">
            <mxPoint x="520" y="470" as="sourcePoint" />
            <mxPoint x="980" y="470" as="targetPoint" />
          </mxGeometry>
        </mxCell>
        <mxCell id="gRiZysT--JvQKF4aJ3n7-95" value="" style="endArrow=none;html=1;rounded=0;" parent="1" edge="1">
          <mxGeometry width="50" height="50" relative="1" as="geometry">
            <mxPoint x="520" y="630" as="sourcePoint" />
            <mxPoint x="980" y="630" as="targetPoint" />
          </mxGeometry>
        </mxCell>
        <mxCell id="gRiZysT--JvQKF4aJ3n7-96" value="" style="endArrow=none;html=1;rounded=0;" parent="1" edge="1">
          <mxGeometry width="50" height="50" relative="1" as="geometry">
            <mxPoint x="520" y="790" as="sourcePoint" />
            <mxPoint x="980" y="790" as="targetPoint" />
          </mxGeometry>
        </mxCell>
        <mxCell id="gRiZysT--JvQKF4aJ3n7-98" value="" style="endArrow=classic;html=1;rounded=0;" parent="1" edge="1">
          <mxGeometry width="50" height="50" relative="1" as="geometry">
            <mxPoint x="980" y="790" as="sourcePoint" />
            <mxPoint x="979.92" y="760" as="targetPoint" />
          </mxGeometry>
        </mxCell>
        <mxCell id="gRiZysT--JvQKF4aJ3n7-99" value="" style="endArrow=classic;html=1;rounded=0;" parent="1" edge="1">
          <mxGeometry width="50" height="50" relative="1" as="geometry">
            <mxPoint x="699.88" y="790" as="sourcePoint" />
            <mxPoint x="699.8" y="760" as="targetPoint" />
          </mxGeometry>
        </mxCell>
        <mxCell id="gRiZysT--JvQKF4aJ3n7-100" value="" style="endArrow=classic;html=1;rounded=0;" parent="1" edge="1">
          <mxGeometry width="50" height="50" relative="1" as="geometry">
            <mxPoint x="699.88" y="630" as="sourcePoint" />
            <mxPoint x="699.8" y="600" as="targetPoint" />
          </mxGeometry>
        </mxCell>
        <mxCell id="gRiZysT--JvQKF4aJ3n7-101" value="" style="endArrow=classic;html=1;rounded=0;" parent="1" edge="1">
          <mxGeometry width="50" height="50" relative="1" as="geometry">
            <mxPoint x="979.88" y="630" as="sourcePoint" />
            <mxPoint x="979.8" y="600" as="targetPoint" />
          </mxGeometry>
        </mxCell>
        <mxCell id="gRiZysT--JvQKF4aJ3n7-102" value="" style="endArrow=classic;html=1;rounded=0;" parent="1" edge="1">
          <mxGeometry width="50" height="50" relative="1" as="geometry">
            <mxPoint x="979.88" y="470" as="sourcePoint" />
            <mxPoint x="979.8" y="440" as="targetPoint" />
          </mxGeometry>
        </mxCell>
        <mxCell id="gRiZysT--JvQKF4aJ3n7-103" value="" style="endArrow=classic;html=1;rounded=0;" parent="1" edge="1">
          <mxGeometry width="50" height="50" relative="1" as="geometry">
            <mxPoint x="699.88" y="470" as="sourcePoint" />
            <mxPoint x="699.8" y="440" as="targetPoint" />
          </mxGeometry>
        </mxCell>
        <mxCell id="gRiZysT--JvQKF4aJ3n7-104" value="" style="endArrow=classic;html=1;rounded=0;" parent="1" edge="1">
          <mxGeometry width="50" height="50" relative="1" as="geometry">
            <mxPoint x="699.88" y="310" as="sourcePoint" />
            <mxPoint x="699.8" y="280" as="targetPoint" />
          </mxGeometry>
        </mxCell>
        <mxCell id="gRiZysT--JvQKF4aJ3n7-105" value="" style="endArrow=classic;html=1;rounded=0;" parent="1" edge="1">
          <mxGeometry width="50" height="50" relative="1" as="geometry">
            <mxPoint x="979.88" y="310" as="sourcePoint" />
            <mxPoint x="979.8" y="280" as="targetPoint" />
          </mxGeometry>
        </mxCell>
        <mxCell id="gRiZysT--JvQKF4aJ3n7-106" value="" style="endArrow=classic;html=1;rounded=0;" parent="1" edge="1">
          <mxGeometry width="50" height="50" relative="1" as="geometry">
            <mxPoint x="979.88" y="150" as="sourcePoint" />
            <mxPoint x="979.8" y="120" as="targetPoint" />
          </mxGeometry>
        </mxCell>
        <mxCell id="gRiZysT--JvQKF4aJ3n7-107" value="" style="endArrow=classic;html=1;rounded=0;" parent="1" edge="1">
          <mxGeometry width="50" height="50" relative="1" as="geometry">
            <mxPoint x="699.8799999999999" y="150" as="sourcePoint" />
            <mxPoint x="699.8" y="120" as="targetPoint" />
          </mxGeometry>
        </mxCell>
        <mxCell id="gRiZysT--JvQKF4aJ3n7-108" value="Sel" style="text;html=1;align=center;verticalAlign=middle;whiteSpace=wrap;rounded=0;" parent="1" vertex="1">
          <mxGeometry x="830" y="420" width="60" height="30" as="geometry" />
        </mxCell>
        <mxCell id="gRiZysT--JvQKF4aJ3n7-109" value="" style="endArrow=none;html=1;rounded=0;entryX=0.5;entryY=1;entryDx=0;entryDy=0;fillColor=#d5e8d4;strokeColor=#82b366;" parent="1" target="gRiZysT--JvQKF4aJ3n7-5" edge="1">
          <mxGeometry width="50" height="50" relative="1" as="geometry">
            <mxPoint x="180" y="280" as="sourcePoint" />
            <mxPoint x="280" y="190" as="targetPoint" />
          </mxGeometry>
        </mxCell>
        <mxCell id="gRiZysT--JvQKF4aJ3n7-110" value="" style="endArrow=none;html=1;rounded=0;fillColor=#d5e8d4;strokeColor=#82b366;" parent="1" edge="1">
          <mxGeometry width="50" height="50" relative="1" as="geometry">
            <mxPoint x="180" y="280" as="sourcePoint" />
            <mxPoint x="480" y="280" as="targetPoint" />
          </mxGeometry>
        </mxCell>
        <mxCell id="gRiZysT--JvQKF4aJ3n7-111" value="" style="endArrow=none;html=1;rounded=0;fillColor=#d5e8d4;strokeColor=#82b366;" parent="1" edge="1">
          <mxGeometry width="50" height="50" relative="1" as="geometry">
            <mxPoint x="480" y="810" as="sourcePoint" />
            <mxPoint x="480" y="170" as="targetPoint" />
          </mxGeometry>
        </mxCell>
        <mxCell id="gRiZysT--JvQKF4aJ3n7-112" value="" style="endArrow=none;html=1;rounded=0;fillColor=#d5e8d4;strokeColor=#82b366;" parent="1" edge="1">
          <mxGeometry width="50" height="50" relative="1" as="geometry">
            <mxPoint x="480" y="170" as="sourcePoint" />
            <mxPoint x="1020" y="170" as="targetPoint" />
          </mxGeometry>
        </mxCell>
        <mxCell id="gRiZysT--JvQKF4aJ3n7-113" value="" style="endArrow=none;html=1;rounded=0;fillColor=#d5e8d4;strokeColor=#82b366;" parent="1" edge="1">
          <mxGeometry width="50" height="50" relative="1" as="geometry">
            <mxPoint x="480" y="330" as="sourcePoint" />
            <mxPoint x="1020" y="330" as="targetPoint" />
          </mxGeometry>
        </mxCell>
        <mxCell id="gRiZysT--JvQKF4aJ3n7-116" value="" style="endArrow=none;html=1;rounded=0;fillColor=#d5e8d4;strokeColor=#82b366;" parent="1" edge="1">
          <mxGeometry width="50" height="50" relative="1" as="geometry">
            <mxPoint x="480" y="650" as="sourcePoint" />
            <mxPoint x="1020" y="650" as="targetPoint" />
          </mxGeometry>
        </mxCell>
        <mxCell id="gRiZysT--JvQKF4aJ3n7-117" value="" style="endArrow=none;html=1;rounded=0;fillColor=#d5e8d4;strokeColor=#82b366;" parent="1" edge="1">
          <mxGeometry width="50" height="50" relative="1" as="geometry">
            <mxPoint x="480" y="810" as="sourcePoint" />
            <mxPoint x="1020" y="810" as="targetPoint" />
          </mxGeometry>
        </mxCell>
        <mxCell id="gRiZysT--JvQKF4aJ3n7-118" value="" style="endArrow=classic;html=1;rounded=0;fillColor=#d5e8d4;strokeColor=#82b366;" parent="1" edge="1">
          <mxGeometry width="50" height="50" relative="1" as="geometry">
            <mxPoint x="1020" y="810" as="sourcePoint" />
            <mxPoint x="1019.81" y="760" as="targetPoint" />
          </mxGeometry>
        </mxCell>
        <mxCell id="gRiZysT--JvQKF4aJ3n7-119" value="" style="endArrow=classic;html=1;rounded=0;fillColor=#d5e8d4;strokeColor=#82b366;" parent="1" edge="1">
          <mxGeometry width="50" height="50" relative="1" as="geometry">
            <mxPoint x="739.69" y="810" as="sourcePoint" />
            <mxPoint x="739.5" y="760" as="targetPoint" />
          </mxGeometry>
        </mxCell>
        <mxCell id="gRiZysT--JvQKF4aJ3n7-120" value="" style="endArrow=classic;html=1;rounded=0;fillColor=#d5e8d4;strokeColor=#82b366;" parent="1" edge="1">
          <mxGeometry width="50" height="50" relative="1" as="geometry">
            <mxPoint x="739.69" y="650" as="sourcePoint" />
            <mxPoint x="739.5" y="600" as="targetPoint" />
          </mxGeometry>
        </mxCell>
        <mxCell id="gRiZysT--JvQKF4aJ3n7-121" value="" style="endArrow=classic;html=1;rounded=0;fillColor=#d5e8d4;strokeColor=#82b366;" parent="1" edge="1">
          <mxGeometry width="50" height="50" relative="1" as="geometry">
            <mxPoint x="1019.69" y="650" as="sourcePoint" />
            <mxPoint x="1019.5" y="600" as="targetPoint" />
          </mxGeometry>
        </mxCell>
        <mxCell id="gRiZysT--JvQKF4aJ3n7-122" value="" style="endArrow=classic;html=1;rounded=0;fillColor=#d5e8d4;strokeColor=#82b366;" parent="1" edge="1">
          <mxGeometry width="50" height="50" relative="1" as="geometry">
            <mxPoint x="1019.69" y="330" as="sourcePoint" />
            <mxPoint x="1019.5" y="280" as="targetPoint" />
          </mxGeometry>
        </mxCell>
        <mxCell id="gRiZysT--JvQKF4aJ3n7-123" value="" style="endArrow=classic;html=1;rounded=0;fillColor=#d5e8d4;strokeColor=#82b366;" parent="1" edge="1">
          <mxGeometry width="50" height="50" relative="1" as="geometry">
            <mxPoint x="739.69" y="330" as="sourcePoint" />
            <mxPoint x="739.5" y="280" as="targetPoint" />
          </mxGeometry>
        </mxCell>
        <mxCell id="gRiZysT--JvQKF4aJ3n7-124" value="" style="endArrow=classic;html=1;rounded=0;fillColor=#d5e8d4;strokeColor=#82b366;" parent="1" edge="1">
          <mxGeometry width="50" height="50" relative="1" as="geometry">
            <mxPoint x="1019.69" y="170" as="sourcePoint" />
            <mxPoint x="1019.5" y="120" as="targetPoint" />
          </mxGeometry>
        </mxCell>
        <mxCell id="gRiZysT--JvQKF4aJ3n7-125" value="" style="endArrow=classic;html=1;rounded=0;fillColor=#d5e8d4;strokeColor=#82b366;" parent="1" edge="1">
          <mxGeometry width="50" height="50" relative="1" as="geometry">
            <mxPoint x="739.69" y="170" as="sourcePoint" />
            <mxPoint x="739.5" y="120" as="targetPoint" />
          </mxGeometry>
        </mxCell>
        <mxCell id="gRiZysT--JvQKF4aJ3n7-126" value="" style="endArrow=none;html=1;rounded=0;fillColor=#e1d5e7;strokeColor=#9673a6;" parent="1" edge="1">
          <mxGeometry width="50" height="50" relative="1" as="geometry">
            <mxPoint x="900" y="610" as="sourcePoint" />
            <mxPoint x="900" y="300" as="targetPoint" />
          </mxGeometry>
        </mxCell>
        <mxCell id="gRiZysT--JvQKF4aJ3n7-127" value="" style="endArrow=none;html=1;rounded=0;entryX=0.5;entryY=1;entryDx=0;entryDy=0;fillColor=#e1d5e7;strokeColor=#9673a6;" parent="1" edge="1">
          <mxGeometry width="50" height="50" relative="1" as="geometry">
            <mxPoint x="900" y="610" as="sourcePoint" />
            <mxPoint x="940" y="609.55" as="targetPoint" />
          </mxGeometry>
        </mxCell>
        <mxCell id="gRiZysT--JvQKF4aJ3n7-128" value="" style="endArrow=classic;html=1;rounded=0;fillColor=#e1d5e7;strokeColor=#9673a6;" parent="1" edge="1">
          <mxGeometry width="50" height="50" relative="1" as="geometry">
            <mxPoint x="939.7900000000001" y="609.55" as="sourcePoint" />
            <mxPoint x="939.7900000000001" y="599.55" as="targetPoint" />
          </mxGeometry>
        </mxCell>
        <mxCell id="gRiZysT--JvQKF4aJ3n7-129" value="" style="endArrow=none;html=1;rounded=0;fillColor=#fff2cc;strokeColor=#d6b656;entryX=0.5;entryY=1;entryDx=0;entryDy=0;" parent="1" target="gRiZysT--JvQKF4aJ3n7-6" edge="1">
          <mxGeometry width="50" height="50" relative="1" as="geometry">
            <mxPoint x="220" y="320" as="sourcePoint" />
            <mxPoint x="420" y="260" as="targetPoint" />
          </mxGeometry>
        </mxCell>
        <mxCell id="gRiZysT--JvQKF4aJ3n7-130" value="" style="endArrow=none;html=1;rounded=0;fillColor=#fff2cc;strokeColor=#d6b656;" parent="1" edge="1">
          <mxGeometry width="50" height="50" relative="1" as="geometry">
            <mxPoint x="220" y="320" as="sourcePoint" />
            <mxPoint x="440" y="320" as="targetPoint" />
          </mxGeometry>
        </mxCell>
        <mxCell id="gRiZysT--JvQKF4aJ3n7-131" value="" style="endArrow=none;html=1;rounded=0;fillColor=#fff2cc;strokeColor=#d6b656;" parent="1" edge="1">
          <mxGeometry width="50" height="50" relative="1" as="geometry">
            <mxPoint x="440" y="820" as="sourcePoint" />
            <mxPoint x="440" y="190" as="targetPoint" />
          </mxGeometry>
        </mxCell>
        <mxCell id="gRiZysT--JvQKF4aJ3n7-132" value="" style="endArrow=none;html=1;rounded=0;fillColor=#fff2cc;strokeColor=#d6b656;" parent="1" edge="1">
          <mxGeometry width="50" height="50" relative="1" as="geometry">
            <mxPoint x="440" y="820" as="sourcePoint" />
            <mxPoint x="1060" y="820" as="targetPoint" />
          </mxGeometry>
        </mxCell>
        <mxCell id="gRiZysT--JvQKF4aJ3n7-133" value="" style="endArrow=none;html=1;rounded=0;fillColor=#fff2cc;strokeColor=#d6b656;" parent="1" edge="1">
          <mxGeometry width="50" height="50" relative="1" as="geometry">
            <mxPoint x="440" y="670" as="sourcePoint" />
            <mxPoint x="1060" y="670" as="targetPoint" />
          </mxGeometry>
        </mxCell>
        <mxCell id="gRiZysT--JvQKF4aJ3n7-134" value="" style="endArrow=none;html=1;rounded=0;fillColor=#fff2cc;strokeColor=#d6b656;" parent="1" edge="1">
          <mxGeometry width="50" height="50" relative="1" as="geometry">
            <mxPoint x="440" y="350" as="sourcePoint" />
            <mxPoint x="1060" y="350" as="targetPoint" />
          </mxGeometry>
        </mxCell>
        <mxCell id="gRiZysT--JvQKF4aJ3n7-135" value="" style="endArrow=none;html=1;rounded=0;fillColor=#fff2cc;strokeColor=#d6b656;" parent="1" edge="1">
          <mxGeometry width="50" height="50" relative="1" as="geometry">
            <mxPoint x="440" y="190" as="sourcePoint" />
            <mxPoint x="1060" y="190" as="targetPoint" />
          </mxGeometry>
        </mxCell>
        <mxCell id="gRiZysT--JvQKF4aJ3n7-136" value="" style="endArrow=classic;html=1;rounded=0;fillColor=#fff2cc;strokeColor=#d6b656;" parent="1" edge="1">
          <mxGeometry width="50" height="50" relative="1" as="geometry">
            <mxPoint x="1060" y="190" as="sourcePoint" />
            <mxPoint x="1059.9" y="120" as="targetPoint" />
          </mxGeometry>
        </mxCell>
        <mxCell id="gRiZysT--JvQKF4aJ3n7-137" value="" style="endArrow=classic;html=1;rounded=0;fillColor=#fff2cc;strokeColor=#d6b656;" parent="1" edge="1">
          <mxGeometry width="50" height="50" relative="1" as="geometry">
            <mxPoint x="779.8399999999999" y="190" as="sourcePoint" />
            <mxPoint x="779.74" y="120" as="targetPoint" />
          </mxGeometry>
        </mxCell>
        <mxCell id="gRiZysT--JvQKF4aJ3n7-138" value="" style="endArrow=classic;html=1;rounded=0;fillColor=#fff2cc;strokeColor=#d6b656;" parent="1" edge="1">
          <mxGeometry width="50" height="50" relative="1" as="geometry">
            <mxPoint x="779.8399999999999" y="350" as="sourcePoint" />
            <mxPoint x="779.74" y="280" as="targetPoint" />
          </mxGeometry>
        </mxCell>
        <mxCell id="gRiZysT--JvQKF4aJ3n7-139" value="" style="endArrow=classic;html=1;rounded=0;fillColor=#fff2cc;strokeColor=#d6b656;" parent="1" edge="1">
          <mxGeometry width="50" height="50" relative="1" as="geometry">
            <mxPoint x="1059.84" y="350" as="sourcePoint" />
            <mxPoint x="1059.74" y="280" as="targetPoint" />
          </mxGeometry>
        </mxCell>
        <mxCell id="gRiZysT--JvQKF4aJ3n7-140" value="" style="endArrow=classic;html=1;rounded=0;fillColor=#fff2cc;strokeColor=#d6b656;" parent="1" edge="1">
          <mxGeometry width="50" height="50" relative="1" as="geometry">
            <mxPoint x="1059.84" y="670" as="sourcePoint" />
            <mxPoint x="1059.74" y="600" as="targetPoint" />
          </mxGeometry>
        </mxCell>
        <mxCell id="gRiZysT--JvQKF4aJ3n7-141" value="" style="endArrow=classic;html=1;rounded=0;fillColor=#fff2cc;strokeColor=#d6b656;" parent="1" edge="1">
          <mxGeometry width="50" height="50" relative="1" as="geometry">
            <mxPoint x="779.8399999999999" y="670" as="sourcePoint" />
            <mxPoint x="779.74" y="600" as="targetPoint" />
          </mxGeometry>
        </mxCell>
        <mxCell id="gRiZysT--JvQKF4aJ3n7-142" value="" style="endArrow=classic;html=1;rounded=0;fillColor=#fff2cc;strokeColor=#d6b656;" parent="1" edge="1">
          <mxGeometry width="50" height="50" relative="1" as="geometry">
            <mxPoint x="780" y="820" as="sourcePoint" />
            <mxPoint x="779.74" y="757" as="targetPoint" />
          </mxGeometry>
        </mxCell>
        <mxCell id="gRiZysT--JvQKF4aJ3n7-143" value="" style="endArrow=classic;html=1;rounded=0;fillColor=#fff2cc;strokeColor=#d6b656;" parent="1" edge="1">
          <mxGeometry width="50" height="50" relative="1" as="geometry">
            <mxPoint x="1060.08" y="823" as="sourcePoint" />
            <mxPoint x="1059.82" y="760" as="targetPoint" />
          </mxGeometry>
        </mxCell>
        <mxCell id="gRiZysT--JvQKF4aJ3n7-144" value="SCL" style="text;html=1;align=center;verticalAlign=middle;whiteSpace=wrap;rounded=0;" parent="1" vertex="1">
          <mxGeometry x="750" y="740" width="60" height="30" as="geometry" />
        </mxCell>
        <mxCell id="gRiZysT--JvQKF4aJ3n7-146" value="SDA" style="text;html=1;align=center;verticalAlign=middle;whiteSpace=wrap;rounded=0;" parent="1" vertex="1">
          <mxGeometry x="710" y="740" width="60" height="30" as="geometry" />
        </mxCell>
        <mxCell id="gRiZysT--JvQKF4aJ3n7-147" value="(D51)" style="text;html=1;align=center;verticalAlign=middle;whiteSpace=wrap;rounded=0;" parent="1" vertex="1">
          <mxGeometry x="230" y="120" width="60" height="30" as="geometry" />
        </mxCell>
        <mxCell id="gRiZysT--JvQKF4aJ3n7-148" value="(D50)" style="text;html=1;align=center;verticalAlign=middle;whiteSpace=wrap;rounded=0;" parent="1" vertex="1">
          <mxGeometry x="270" y="120" width="60" height="30" as="geometry" />
        </mxCell>
        <mxCell id="gRiZysT--JvQKF4aJ3n7-149" value="(D52)" style="text;html=1;align=center;verticalAlign=middle;whiteSpace=wrap;rounded=0;" parent="1" vertex="1">
          <mxGeometry x="310" y="120" width="60" height="30" as="geometry" />
        </mxCell>
        <mxCell id="gRiZysT--JvQKF4aJ3n7-150" value="" style="endArrow=none;html=1;rounded=0;entryX=0.5;entryY=1;entryDx=0;entryDy=0;fillColor=#dae8fc;strokeColor=#6c8ebf;" parent="1" target="gRiZysT--JvQKF4aJ3n7-7" edge="1">
          <mxGeometry width="50" height="50" relative="1" as="geometry">
            <mxPoint x="260" y="490" as="sourcePoint" />
            <mxPoint x="370" y="180" as="targetPoint" />
          </mxGeometry>
        </mxCell>
        <mxCell id="gRiZysT--JvQKF4aJ3n7-151" value="" style="endArrow=none;html=1;rounded=0;entryX=0.5;entryY=1;entryDx=0;entryDy=0;fillColor=#f8cecc;strokeColor=#b85450;" parent="1" edge="1">
          <mxGeometry width="50" height="50" relative="1" as="geometry">
            <mxPoint x="560" y="450" as="sourcePoint" />
            <mxPoint x="660" y="451" as="targetPoint" />
          </mxGeometry>
        </mxCell>
        <mxCell id="gRiZysT--JvQKF4aJ3n7-152" value="" style="endArrow=classic;html=1;rounded=0;fillColor=#f8cecc;strokeColor=#b85450;" parent="1" edge="1">
          <mxGeometry width="50" height="50" relative="1" as="geometry">
            <mxPoint x="659.7600000000001" y="450" as="sourcePoint" />
            <mxPoint x="659.7600000000001" y="440" as="targetPoint" />
          </mxGeometry>
        </mxCell>
        <mxCell id="gRiZysT--JvQKF4aJ3n7-153" value="" style="endArrow=none;html=1;rounded=0;fillColor=#dae8fc;strokeColor=#6c8ebf;" parent="1" edge="1">
          <mxGeometry width="50" height="50" relative="1" as="geometry">
            <mxPoint x="260" y="490" as="sourcePoint" />
            <mxPoint x="780" y="490" as="targetPoint" />
          </mxGeometry>
        </mxCell>
        <mxCell id="gRiZysT--JvQKF4aJ3n7-154" value="" style="endArrow=classic;html=1;rounded=0;fillColor=#dae8fc;strokeColor=#6c8ebf;" parent="1" edge="1">
          <mxGeometry width="50" height="50" relative="1" as="geometry">
            <mxPoint x="780" y="490" as="sourcePoint" />
            <mxPoint x="780" y="440" as="targetPoint" />
          </mxGeometry>
        </mxCell>
        <mxCell id="gRiZysT--JvQKF4aJ3n7-155" value="" style="endArrow=none;html=1;rounded=0;fillColor=#a0522d;strokeColor=#6D1F00;entryX=0.5;entryY=1;entryDx=0;entryDy=0;" parent="1" target="gRiZysT--JvQKF4aJ3n7-8" edge="1">
          <mxGeometry width="50" height="50" relative="1" as="geometry">
            <mxPoint x="300" y="480" as="sourcePoint" />
            <mxPoint x="350" y="210" as="targetPoint" />
          </mxGeometry>
        </mxCell>
        <mxCell id="gRiZysT--JvQKF4aJ3n7-156" value="" style="endArrow=none;html=1;rounded=0;fillColor=#a0522d;strokeColor=#6D1F00;" parent="1" edge="1">
          <mxGeometry width="50" height="50" relative="1" as="geometry">
            <mxPoint x="300" y="480" as="sourcePoint" />
            <mxPoint x="740" y="480" as="targetPoint" />
          </mxGeometry>
        </mxCell>
        <mxCell id="gRiZysT--JvQKF4aJ3n7-157" value="" style="endArrow=classic;html=1;rounded=0;fillColor=#a0522d;strokeColor=#6D1F00;" parent="1" edge="1">
          <mxGeometry width="50" height="50" relative="1" as="geometry">
            <mxPoint x="740" y="480" as="sourcePoint" />
            <mxPoint x="739.85" y="440" as="targetPoint" />
          </mxGeometry>
        </mxCell>
        <mxCell id="gRiZysT--JvQKF4aJ3n7-158" value="" style="endArrow=none;html=1;rounded=0;fillColor=#f0a30a;strokeColor=#BD7000;entryX=0.5;entryY=1;entryDx=0;entryDy=0;" parent="1" target="gRiZysT--JvQKF4aJ3n7-9" edge="1">
          <mxGeometry width="50" height="50" relative="1" as="geometry">
            <mxPoint x="340" y="500" as="sourcePoint" />
            <mxPoint x="460" y="140" as="targetPoint" />
          </mxGeometry>
        </mxCell>
        <mxCell id="gRiZysT--JvQKF4aJ3n7-159" value="" style="endArrow=none;html=1;rounded=0;fillColor=#f0a30a;strokeColor=#BD7000;" parent="1" edge="1">
          <mxGeometry width="50" height="50" relative="1" as="geometry">
            <mxPoint x="340" y="500" as="sourcePoint" />
            <mxPoint x="820.3604043496622" y="500" as="targetPoint" />
          </mxGeometry>
        </mxCell>
        <mxCell id="gRiZysT--JvQKF4aJ3n7-161" value="" style="endArrow=classic;html=1;rounded=0;fillColor=#f0a30a;strokeColor=#BD7000;entryX=0.75;entryY=1;entryDx=0;entryDy=0;" parent="1" target="gRiZysT--JvQKF4aJ3n7-21" edge="1">
          <mxGeometry width="50" height="50" relative="1" as="geometry">
            <mxPoint x="820" y="500" as="sourcePoint" />
            <mxPoint x="850" y="410" as="targetPoint" />
          </mxGeometry>
        </mxCell>
        <mxCell id="gRiZysT--JvQKF4aJ3n7-162" value="CLK" style="text;html=1;align=center;verticalAlign=middle;whiteSpace=wrap;rounded=0;" parent="1" vertex="1">
          <mxGeometry x="790" y="420" width="60" height="30" as="geometry" />
        </mxCell>
        <mxCell id="gRiZysT--JvQKF4aJ3n7-163" value="" style="endArrow=none;html=1;rounded=0;fillColor=#d80073;strokeColor=#A50040;entryX=1;entryY=0.5;entryDx=0;entryDy=0;" parent="1" target="gRiZysT--JvQKF4aJ3n7-10" edge="1">
          <mxGeometry width="50" height="50" relative="1" as="geometry">
            <mxPoint x="360" y="54.82" as="sourcePoint" />
            <mxPoint x="370" y="54.82" as="targetPoint" />
          </mxGeometry>
        </mxCell>
        <mxCell id="gRiZysT--JvQKF4aJ3n7-164" value="" style="endArrow=none;html=1;rounded=0;fillColor=#d80073;strokeColor=#A50040;entryX=1;entryY=0.5;entryDx=0;entryDy=0;" parent="1" target="gRiZysT--JvQKF4aJ3n7-10" edge="1">
          <mxGeometry width="50" height="50" relative="1" as="geometry">
            <mxPoint x="380" y="511" as="sourcePoint" />
            <mxPoint x="510" y="60" as="targetPoint" />
          </mxGeometry>
        </mxCell>
        <mxCell id="gRiZysT--JvQKF4aJ3n7-165" value="" style="endArrow=none;html=1;rounded=0;fillColor=#d80073;strokeColor=#A50040;" parent="1" edge="1">
          <mxGeometry width="50" height="50" relative="1" as="geometry">
            <mxPoint x="380" y="510" as="sourcePoint" />
            <mxPoint x="860.6896551724138" y="510" as="targetPoint" />
          </mxGeometry>
        </mxCell>
        <mxCell id="gRiZysT--JvQKF4aJ3n7-166" value="" style="endArrow=classic;html=1;rounded=0;fillColor=#d80073;strokeColor=#A50040;" parent="1" edge="1">
          <mxGeometry width="50" height="50" relative="1" as="geometry">
            <mxPoint x="860" y="510" as="sourcePoint" />
            <mxPoint x="859.83" y="440" as="targetPoint" />
          </mxGeometry>
        </mxCell>
        <mxCell id="gRiZysT--JvQKF4aJ3n7-167" value="" style="endArrow=none;html=1;rounded=0;fillColor=#bac8d3;strokeColor=#23445d;" parent="1" edge="1">
          <mxGeometry width="50" height="50" relative="1" as="geometry">
            <mxPoint x="360" y="74.73" as="sourcePoint" />
            <mxPoint x="400" y="74.83" as="targetPoint" />
          </mxGeometry>
        </mxCell>
        <mxCell id="gRiZysT--JvQKF4aJ3n7-168" value="" style="endArrow=none;html=1;rounded=0;fillColor=#bac8d3;strokeColor=#23445d;" parent="1" edge="1">
          <mxGeometry width="50" height="50" relative="1" as="geometry">
            <mxPoint x="400" y="460" as="sourcePoint" />
            <mxPoint x="400" y="70" as="targetPoint" />
          </mxGeometry>
        </mxCell>
        <mxCell id="gRiZysT--JvQKF4aJ3n7-169" value="" style="endArrow=none;html=1;rounded=0;fillColor=#bac8d3;strokeColor=#23445d;" parent="1" edge="1">
          <mxGeometry width="50" height="50" relative="1" as="geometry">
            <mxPoint x="400" y="460" as="sourcePoint" />
            <mxPoint x="1020.5128831129807" y="460" as="targetPoint" />
          </mxGeometry>
        </mxCell>
        <mxCell id="gRiZysT--JvQKF4aJ3n7-170" value="" style="endArrow=classic;html=1;rounded=0;fillColor=#bac8d3;strokeColor=#23445d;" parent="1" edge="1">
          <mxGeometry width="50" height="50" relative="1" as="geometry">
            <mxPoint x="1020" y="460" as="sourcePoint" />
            <mxPoint x="1019.81" y="440" as="targetPoint" />
          </mxGeometry>
        </mxCell>
        <mxCell id="gRiZysT--JvQKF4aJ3n7-171" value="" style="endArrow=none;html=1;rounded=0;fillColor=#bac8d3;strokeColor=#23445d;" parent="1" edge="1">
          <mxGeometry width="50" height="50" relative="1" as="geometry">
            <mxPoint x="1020" y="460" as="sourcePoint" />
            <mxPoint x="1100" y="460" as="targetPoint" />
          </mxGeometry>
        </mxCell>
        <mxCell id="gRiZysT--JvQKF4aJ3n7-172" value="" style="endArrow=classic;html=1;rounded=0;fillColor=#bac8d3;strokeColor=#23445d;" parent="1" edge="1">
          <mxGeometry width="50" height="50" relative="1" as="geometry">
            <mxPoint x="1100" y="460" as="sourcePoint" />
            <mxPoint x="1099.76" y="280" as="targetPoint" />
          </mxGeometry>
        </mxCell>
        <mxCell id="gRiZysT--JvQKF4aJ3n7-173" value="Sel" style="text;html=1;align=center;verticalAlign=middle;whiteSpace=wrap;rounded=0;" parent="1" vertex="1">
          <mxGeometry x="1070" y="100" width="60" height="30" as="geometry" />
        </mxCell>
        <mxCell id="gRiZysT--JvQKF4aJ3n7-174" value="" style="endArrow=classic;html=1;rounded=0;" parent="1" edge="1">
          <mxGeometry width="50" height="50" relative="1" as="geometry">
            <mxPoint x="1099.89" y="150" as="sourcePoint" />
            <mxPoint x="1099.81" y="120" as="targetPoint" />
          </mxGeometry>
        </mxCell>
        <mxCell id="uSA_6MLN7UH2M0pybwH7-1" value="IRM-AT CH4 sensor" style="rounded=0;whiteSpace=wrap;html=1;" parent="1" vertex="1">
          <mxGeometry x="80" y="600" width="240" height="80" as="geometry" />
        </mxCell>
        <mxCell id="uSA_6MLN7UH2M0pybwH7-2" value="5V" style="text;html=1;align=center;verticalAlign=middle;whiteSpace=wrap;rounded=0;" parent="1" vertex="1">
          <mxGeometry x="70" y="660" width="60" height="30" as="geometry" />
        </mxCell>
        <mxCell id="uSA_6MLN7UH2M0pybwH7-3" value="Gnd" style="text;html=1;align=center;verticalAlign=middle;whiteSpace=wrap;rounded=0;" parent="1" vertex="1">
          <mxGeometry x="110" y="660" width="60" height="30" as="geometry" />
        </mxCell>
        <mxCell id="uSA_6MLN7UH2M0pybwH7-4" value="-5V" style="text;html=1;align=center;verticalAlign=middle;whiteSpace=wrap;rounded=0;" parent="1" vertex="1">
          <mxGeometry x="150" y="660" width="60" height="30" as="geometry" />
        </mxCell>
        <mxCell id="uSA_6MLN7UH2M0pybwH7-5" value="CO2&amp;nbsp;&lt;div&gt;drive&lt;/div&gt;" style="text;html=1;align=center;verticalAlign=middle;whiteSpace=wrap;rounded=0;" parent="1" vertex="1">
          <mxGeometry x="190" y="650" width="60" height="30" as="geometry" />
        </mxCell>
        <mxCell id="uSA_6MLN7UH2M0pybwH7-6" value="Act" style="text;html=1;align=center;verticalAlign=middle;whiteSpace=wrap;rounded=0;" parent="1" vertex="1">
          <mxGeometry x="230" y="660" width="60" height="30" as="geometry" />
        </mxCell>
        <mxCell id="uSA_6MLN7UH2M0pybwH7-7" value="Ref" style="text;html=1;align=center;verticalAlign=middle;whiteSpace=wrap;rounded=0;" parent="1" vertex="1">
          <mxGeometry x="270" y="660" width="60" height="30" as="geometry" />
        </mxCell>
        <mxCell id="uSA_6MLN7UH2M0pybwH7-8" value="-5V supply" style="rounded=0;whiteSpace=wrap;html=1;" parent="1" vertex="1">
          <mxGeometry x="240" y="760" width="120" height="40" as="geometry" />
        </mxCell>
        <mxCell id="uSA_6MLN7UH2M0pybwH7-9" value="Gnd" style="text;html=1;align=center;verticalAlign=middle;whiteSpace=wrap;rounded=0;" parent="1" vertex="1">
          <mxGeometry x="310" y="750" width="60" height="30" as="geometry" />
        </mxCell>
        <mxCell id="uSA_6MLN7UH2M0pybwH7-10" value="" style="endArrow=none;html=1;rounded=0;" parent="1" edge="1">
          <mxGeometry width="50" height="50" relative="1" as="geometry">
            <mxPoint x="140" y="720" as="sourcePoint" />
            <mxPoint x="520" y="720" as="targetPoint" />
          </mxGeometry>
        </mxCell>
        <mxCell id="uSA_6MLN7UH2M0pybwH7-11" value="" style="endArrow=classic;html=1;rounded=0;" parent="1" edge="1">
          <mxGeometry width="50" height="50" relative="1" as="geometry">
            <mxPoint x="340" y="720" as="sourcePoint" />
            <mxPoint x="339.87" y="760" as="targetPoint" />
          </mxGeometry>
        </mxCell>
        <mxCell id="uSA_6MLN7UH2M0pybwH7-12" value="" style="endArrow=none;html=1;rounded=0;entryX=0;entryY=0.5;entryDx=0;entryDy=0;fillColor=#a20025;strokeColor=#6F0000;" parent="1" target="uSA_6MLN7UH2M0pybwH7-8" edge="1">
          <mxGeometry width="50" height="50" relative="1" as="geometry">
            <mxPoint x="180" y="780" as="sourcePoint" />
            <mxPoint x="240" y="730" as="targetPoint" />
          </mxGeometry>
        </mxCell>
        <mxCell id="uSA_6MLN7UH2M0pybwH7-13" value="" style="endArrow=classic;html=1;rounded=0;fillColor=#a20025;strokeColor=#6F0000;" parent="1" edge="1">
          <mxGeometry width="50" height="50" relative="1" as="geometry">
            <mxPoint x="180" y="780" as="sourcePoint" />
            <mxPoint x="179.88" y="680" as="targetPoint" />
          </mxGeometry>
        </mxCell>
        <mxCell id="uSA_6MLN7UH2M0pybwH7-15" value="" style="endArrow=classic;html=1;rounded=0;" parent="1" edge="1">
          <mxGeometry width="50" height="50" relative="1" as="geometry">
            <mxPoint x="140" y="720" as="sourcePoint" />
            <mxPoint x="139.84" y="680" as="targetPoint" />
          </mxGeometry>
        </mxCell>
        <mxCell id="uSA_6MLN7UH2M0pybwH7-16" value="" style="endArrow=none;html=1;rounded=0;fillColor=#f8cecc;strokeColor=#b85450;" parent="1" edge="1">
          <mxGeometry width="50" height="50" relative="1" as="geometry">
            <mxPoint x="60" y="700" as="sourcePoint" />
            <mxPoint x="100" y="700" as="targetPoint" />
          </mxGeometry>
        </mxCell>
        <mxCell id="uSA_6MLN7UH2M0pybwH7-17" value="" style="endArrow=classic;html=1;rounded=0;fillColor=#f8cecc;strokeColor=#b85450;" parent="1" edge="1">
          <mxGeometry width="50" height="50" relative="1" as="geometry">
            <mxPoint x="100" y="700" as="sourcePoint" />
            <mxPoint x="99.80000000000001" y="680" as="targetPoint" />
          </mxGeometry>
        </mxCell>
        <mxCell id="uSA_6MLN7UH2M0pybwH7-18" value="PWM (50%)" style="text;html=1;align=center;verticalAlign=middle;whiteSpace=wrap;rounded=0;" parent="1" vertex="1">
          <mxGeometry x="40" y="40" width="80" height="30" as="geometry" />
        </mxCell>
        <mxCell id="uSA_6MLN7UH2M0pybwH7-19" value="" style="endArrow=none;html=1;rounded=0;fillColor=#f0a30a;strokeColor=#F0DA16;entryX=0.002;entryY=0.66;entryDx=0;entryDy=0;entryPerimeter=0;" parent="1" target="uSA_6MLN7UH2M0pybwH7-18" edge="1">
          <mxGeometry width="50" height="50" relative="1" as="geometry">
            <mxPoint x="30" y="60" as="sourcePoint" />
            <mxPoint x="150" y="70" as="targetPoint" />
          </mxGeometry>
        </mxCell>
        <mxCell id="uSA_6MLN7UH2M0pybwH7-20" value="" style="endArrow=none;html=1;rounded=0;fillColor=#f0a30a;strokeColor=#F0DA16;" parent="1" edge="1">
          <mxGeometry width="50" height="50" relative="1" as="geometry">
            <mxPoint x="30" y="60" as="sourcePoint" />
            <mxPoint x="30" y="730" as="targetPoint" />
          </mxGeometry>
        </mxCell>
        <mxCell id="uSA_6MLN7UH2M0pybwH7-21" value="" style="endArrow=none;html=1;rounded=0;fillColor=#f0a30a;strokeColor=#F0DA16;" parent="1" edge="1">
          <mxGeometry width="50" height="50" relative="1" as="geometry">
            <mxPoint x="30" y="730" as="sourcePoint" />
            <mxPoint x="220" y="730" as="targetPoint" />
          </mxGeometry>
        </mxCell>
        <mxCell id="uSA_6MLN7UH2M0pybwH7-22" value="" style="endArrow=classic;html=1;rounded=0;strokeColor=#F0DA16;" parent="1" edge="1">
          <mxGeometry width="50" height="50" relative="1" as="geometry">
            <mxPoint x="220" y="730" as="sourcePoint" />
            <mxPoint x="219.86" y="680" as="targetPoint" />
          </mxGeometry>
        </mxCell>
        <mxCell id="uSA_6MLN7UH2M0pybwH7-23" value="A1" style="text;html=1;align=center;verticalAlign=middle;whiteSpace=wrap;rounded=0;" parent="1" vertex="1">
          <mxGeometry x="20" y="70" width="60" height="30" as="geometry" />
        </mxCell>
        <mxCell id="uSA_6MLN7UH2M0pybwH7-24" value="A2" style="text;html=1;align=center;verticalAlign=middle;whiteSpace=wrap;rounded=0;" parent="1" vertex="1">
          <mxGeometry x="20" y="100" width="60" height="30" as="geometry" />
        </mxCell>
        <mxCell id="uSA_6MLN7UH2M0pybwH7-25" value="" style="endArrow=none;html=1;rounded=0;fillColor=#76608a;strokeColor=#BD7FF5;" parent="1" target="uSA_6MLN7UH2M0pybwH7-6" edge="1">
          <mxGeometry width="50" height="50" relative="1" as="geometry">
            <mxPoint x="260" y="740" as="sourcePoint" />
            <mxPoint x="290" y="650" as="targetPoint" />
            <Array as="points">
              <mxPoint x="260" y="680" />
            </Array>
          </mxGeometry>
        </mxCell>
        <mxCell id="uSA_6MLN7UH2M0pybwH7-27" value="" style="endArrow=none;html=1;rounded=0;strokeColor=#BD7FF5;" parent="1" edge="1">
          <mxGeometry width="50" height="50" relative="1" as="geometry">
            <mxPoint x="18.911556321747447" y="740" as="sourcePoint" />
            <mxPoint x="260" y="740" as="targetPoint" />
          </mxGeometry>
        </mxCell>
        <mxCell id="uSA_6MLN7UH2M0pybwH7-28" value="" style="endArrow=none;html=1;rounded=0;strokeColor=#BD7FF5;entryX=0;entryY=0.5;entryDx=0;entryDy=0;" parent="1" target="uSA_6MLN7UH2M0pybwH7-23" edge="1">
          <mxGeometry width="50" height="50" relative="1" as="geometry">
            <mxPoint x="20" y="740" as="sourcePoint" />
            <mxPoint x="20" y="660" as="targetPoint" />
          </mxGeometry>
        </mxCell>
        <mxCell id="uSA_6MLN7UH2M0pybwH7-29" value="" style="endArrow=classic;html=1;rounded=0;strokeColor=#BD7FF5;exitX=0;exitY=0.5;exitDx=0;exitDy=0;" parent="1" source="uSA_6MLN7UH2M0pybwH7-23" edge="1">
          <mxGeometry width="50" height="50" relative="1" as="geometry">
            <mxPoint x="30" y="84.86" as="sourcePoint" />
            <mxPoint x="40" y="84.86" as="targetPoint" />
          </mxGeometry>
        </mxCell>
        <mxCell id="uSA_6MLN7UH2M0pybwH7-30" value="" style="endArrow=none;html=1;rounded=0;fillColor=#1ba1e2;strokeColor=#001BC9;" parent="1" edge="1">
          <mxGeometry width="50" height="50" relative="1" as="geometry">
            <mxPoint x="300" y="750.7692307692307" as="sourcePoint" />
            <mxPoint x="299.9" y="680" as="targetPoint" />
          </mxGeometry>
        </mxCell>
        <mxCell id="uSA_6MLN7UH2M0pybwH7-31" value="" style="endArrow=none;html=1;rounded=0;strokeColor=#001BC9;" parent="1" edge="1">
          <mxGeometry width="50" height="50" relative="1" as="geometry">
            <mxPoint x="10" y="750" as="sourcePoint" />
            <mxPoint x="300" y="750" as="targetPoint" />
          </mxGeometry>
        </mxCell>
        <mxCell id="uSA_6MLN7UH2M0pybwH7-32" value="" style="endArrow=none;html=1;rounded=0;strokeColor=#001BC9;" parent="1" edge="1">
          <mxGeometry width="50" height="50" relative="1" as="geometry">
            <mxPoint x="10" y="119.42029870074728" as="sourcePoint" />
            <mxPoint x="10" y="750" as="targetPoint" />
          </mxGeometry>
        </mxCell>
        <mxCell id="uSA_6MLN7UH2M0pybwH7-33" value="" style="endArrow=classic;html=1;rounded=0;strokeColor=#001BC9;" parent="1" edge="1">
          <mxGeometry width="50" height="50" relative="1" as="geometry">
            <mxPoint x="10" y="120" as="sourcePoint" />
            <mxPoint x="40" y="120" as="targetPoint" />
          </mxGeometry>
        </mxCell>
        <mxCell id="9pxQY1btomMf0O4vA9A6-1" value="D7" style="text;html=1;align=center;verticalAlign=middle;whiteSpace=wrap;rounded=0;" vertex="1" parent="1">
          <mxGeometry x="320" y="80" width="60" height="30" as="geometry" />
        </mxCell>
        <mxCell id="9pxQY1btomMf0O4vA9A6-2" value="D6" style="text;html=1;align=center;verticalAlign=middle;whiteSpace=wrap;rounded=0;" vertex="1" parent="1">
          <mxGeometry x="320" y="100" width="60" height="30" as="geometry" />
        </mxCell>
        <mxCell id="9pxQY1btomMf0O4vA9A6-3" value="" style="triangle;whiteSpace=wrap;html=1;rotation=-90;" vertex="1" parent="1">
          <mxGeometry x="160.62" y="440.63" width="38.75" height="40" as="geometry" />
        </mxCell>
        <mxCell id="9pxQY1btomMf0O4vA9A6-4" value="" style="endArrow=none;html=1;rounded=0;" edge="1" parent="1">
          <mxGeometry width="50" height="50" relative="1" as="geometry">
            <mxPoint x="160" y="440" as="sourcePoint" />
            <mxPoint x="200" y="440" as="targetPoint" />
          </mxGeometry>
        </mxCell>
        <mxCell id="9pxQY1btomMf0O4vA9A6-5" value="" style="rounded=0;whiteSpace=wrap;html=1;" vertex="1" parent="1">
          <mxGeometry x="169.99" y="360" width="20" height="40" as="geometry" />
        </mxCell>
        <mxCell id="9pxQY1btomMf0O4vA9A6-6" value="470R" style="text;html=1;align=center;verticalAlign=middle;whiteSpace=wrap;rounded=0;rotation=-90;" vertex="1" parent="1">
          <mxGeometry x="170" y="365" width="60" height="30" as="geometry" />
        </mxCell>
        <mxCell id="9pxQY1btomMf0O4vA9A6-7" value="" style="endArrow=none;html=1;rounded=0;strokeColor=#63FFD0;" edge="1" parent="1">
          <mxGeometry width="50" height="50" relative="1" as="geometry">
            <mxPoint x="360" y="94.9" as="sourcePoint" />
            <mxPoint x="420" y="95" as="targetPoint" />
          </mxGeometry>
        </mxCell>
        <mxCell id="9pxQY1btomMf0O4vA9A6-8" value="" style="endArrow=none;html=1;rounded=0;strokeColor=#63FFD0;entryX=0;entryY=0.5;entryDx=0;entryDy=0;" edge="1" parent="1" target="9pxQY1btomMf0O4vA9A6-3">
          <mxGeometry width="50" height="50" relative="1" as="geometry">
            <mxPoint x="420" y="90" as="sourcePoint" />
            <mxPoint x="160" y="530" as="targetPoint" />
            <Array as="points">
              <mxPoint x="420" y="530" />
              <mxPoint x="180" y="530" />
            </Array>
          </mxGeometry>
        </mxCell>
        <mxCell id="9pxQY1btomMf0O4vA9A6-9" value="" style="endArrow=none;html=1;rounded=0;strokeColor=#63FFD0;" edge="1" parent="1">
          <mxGeometry width="50" height="50" relative="1" as="geometry">
            <mxPoint x="179.77" y="440.63" as="sourcePoint" />
            <mxPoint x="179.77" y="400.73" as="targetPoint" />
          </mxGeometry>
        </mxCell>
        <mxCell id="9pxQY1btomMf0O4vA9A6-10" value="" style="endArrow=none;html=1;rounded=0;strokeColor=#63FFD0;" edge="1" parent="1">
          <mxGeometry width="50" height="50" relative="1" as="geometry">
            <mxPoint x="140" y="240" as="sourcePoint" />
            <mxPoint x="140" y="240" as="targetPoint" />
            <Array as="points" />
          </mxGeometry>
        </mxCell>
        <mxCell id="9pxQY1btomMf0O4vA9A6-12" value="" style="endArrow=none;html=1;rounded=0;strokeColor=#63FFD0;" edge="1" parent="1">
          <mxGeometry width="50" height="50" relative="1" as="geometry">
            <mxPoint x="179.77" y="360" as="sourcePoint" />
            <mxPoint x="140" y="320" as="targetPoint" />
            <Array as="points">
              <mxPoint x="180" y="320" />
              <mxPoint x="140" y="320" />
            </Array>
          </mxGeometry>
        </mxCell>
        <mxCell id="9pxQY1btomMf0O4vA9A6-13" value="" style="endArrow=none;html=1;rounded=0;strokeColor=#BD75AC;" edge="1" parent="1">
          <mxGeometry width="50" height="50" relative="1" as="geometry">
            <mxPoint x="360" y="114.8" as="sourcePoint" />
            <mxPoint x="430" y="115" as="targetPoint" />
          </mxGeometry>
        </mxCell>
        <mxCell id="9pxQY1btomMf0O4vA9A6-14" value="" style="endArrow=none;html=1;rounded=0;strokeColor=#BD75AC;entryX=0.5;entryY=1;entryDx=0;entryDy=0;" edge="1" parent="1" target="9pxQY1btomMf0O4vA9A6-15">
          <mxGeometry width="50" height="50" relative="1" as="geometry">
            <mxPoint x="430" y="114.8" as="sourcePoint" />
            <mxPoint x="70" y="550" as="targetPoint" />
            <Array as="points">
              <mxPoint x="430" y="550" />
              <mxPoint x="100" y="550" />
            </Array>
          </mxGeometry>
        </mxCell>
        <mxCell id="9pxQY1btomMf0O4vA9A6-15" value="" style="ellipse;whiteSpace=wrap;html=1;aspect=fixed;" vertex="1" parent="1">
          <mxGeometry x="80" y="400.63" width="40" height="40" as="geometry" />
        </mxCell>
        <mxCell id="9pxQY1btomMf0O4vA9A6-16" value="" style="endArrow=classic;html=1;rounded=0;" edge="1" parent="1">
          <mxGeometry width="50" height="50" relative="1" as="geometry">
            <mxPoint x="199.37" y="470.63" as="sourcePoint" />
            <mxPoint x="219.37" y="450" as="targetPoint" />
          </mxGeometry>
        </mxCell>
        <mxCell id="9pxQY1btomMf0O4vA9A6-17" value="" style="endArrow=classic;html=1;rounded=0;" edge="1" parent="1">
          <mxGeometry width="50" height="50" relative="1" as="geometry">
            <mxPoint x="199.37" y="460" as="sourcePoint" />
            <mxPoint x="220" y="440" as="targetPoint" />
          </mxGeometry>
        </mxCell>
        <mxCell id="9pxQY1btomMf0O4vA9A6-18" value="Buzzer" style="text;html=1;align=center;verticalAlign=middle;whiteSpace=wrap;rounded=0;rotation=-90;" vertex="1" parent="1">
          <mxGeometry x="100.62" y="405.63" width="60" height="30" as="geometry" />
        </mxCell>
        <mxCell id="9pxQY1btomMf0O4vA9A6-19" value="" style="endArrow=none;html=1;rounded=0;strokeColor=#BD75AC;" edge="1" parent="1">
          <mxGeometry width="50" height="50" relative="1" as="geometry">
            <mxPoint x="100" y="400" as="sourcePoint" />
            <mxPoint x="140" y="320" as="targetPoint" />
            <Array as="points">
              <mxPoint x="100" y="320" />
            </Array>
          </mxGeometry>
        </mxCell>
        <mxCell id="9pxQY1btomMf0O4vA9A6-20" value="" style="ellipse;whiteSpace=wrap;html=1;aspect=fixed;strokeColor=#000000;fillColor=#000000;" vertex="1" parent="1">
          <mxGeometry x="130" y="310" width="20" height="20" as="geometry" />
        </mxCell>
        <mxCell id="9pxQY1btomMf0O4vA9A6-21" value="" style="endArrow=classic;html=1;rounded=0;exitX=0.5;exitY=0;exitDx=0;exitDy=0;" edge="1" parent="1" source="9pxQY1btomMf0O4vA9A6-20">
          <mxGeometry width="50" height="50" relative="1" as="geometry">
            <mxPoint x="150" y="340" as="sourcePoint" />
            <mxPoint x="140" y="240" as="targetPoint" />
          </mxGeometry>
        </mxCell>
      </root>
    </mxGraphModel>
  </diagram>
</mxfile>
